2<?xml version="1.0" encoding="UTF-8" standalone="no"?>
<!DOCTYPE svg PUBLIC "-//W3C//DTD SVG 1.1//EN" "http://www.w3.org/Graphics/SVG/1.1/DTD/svg11.dtd">
<svg xmlns="http://www.w3.org/2000/svg" version="1.1" viewBox="0.00 0.00 506.00 380.00">
<g stroke-width="2.00" fill="none" stroke-linecap="butt">
<path stroke="#808080" vector-effect="non-scaling-stroke" d="
  M 506.00 133.56
  C 494.31 118.35 476.47 107.25 457.10 105.23
  Q 456.57 105.18 456.52 105.71
  Q 455.38 116.84 449.73 126.43
  Q 449.42 126.96 450.02 127.07
  Q 463.02 129.38 474.21 136.32
  Q 475.99 137.42 474.03 136.71
  C 430.50 120.90 397.08 140.14 369.61 172.53
  A 0.17 0.17 0.0 0 0 369.82 172.79
  C 381.95 166.51 393.60 172.64 399.02 184.33
  A 0.24 0.23 -54.5 0 0 399.47 184.25
  Q 400.92 172.23 393.32 162.95
  Q 392.57 162.03 393.73 161.83
  C 415.52 158.04 438.92 158.20 459.81 165.43
  Q 484.29 173.89 506.00 188.93"
/>
<path stroke="#616161" vector-effect="non-scaling-stroke" d="
  M 396.41 328.13
  L 388.28 326.68"
/>
<path stroke="#807f5d" vector-effect="non-scaling-stroke" d="
  M 388.28 326.68
  L 384.49 325.01
  A 0.44 0.43 -45.5 0 1 384.49 324.22
  L 410.52 312.16
  A 0.65 0.64 -33.5 0 0 410.73 311.15
  L 403.41 302.75
  Q 402.98 302.26 402.33 302.37
  Q 386.09 305.09 370.04 301.50
  A 0.54 0.53 16.0 0 0 369.43 301.83
  C 366.80 308.71 361.91 323.81 364.24 330.83
  Q 366.59 337.92 369.58 344.77
  C 369.88 345.46 369.71 346.16 369.29 346.70"
/>
<path stroke="#620202" vector-effect="non-scaling-stroke" d="
  M 352.93 25.22
  C 343.75 26.36 331.26 33.93 324.37 38.89"
/>
<path stroke="#808080" vector-effect="non-scaling-stroke" d="
  M 324.37 38.89
  C 293.95 58.60 277.89 92.82 288.12 128.77
  Q 288.28 129.33 288.75 128.98
  C 296.47 123.15 303.70 131.44 306.10 138.19
  Q 306.30 138.76 306.83 138.47
  L 320.97 130.80"
/>
<path stroke="#620202" vector-effect="non-scaling-stroke" d="
  M 320.97 130.80
  L 357.44 110.85"
/>
<path stroke="#808080" vector-effect="non-scaling-stroke" d="
  M 357.44 110.85
  L 397.63 88.86
  Q 398.18 88.56 398.32 89.17
  Q 400.93 100.57 405.96 111.79"
/>
<path stroke="#6f6f6f" vector-effect="non-scaling-stroke" d="
  M 405.96 111.79
  Q 410.38 122.25 419.43 129.52
  A 1.05 1.03 54.5 0 0 420.39 129.69
  Q 431.51 125.99 443.23 126.25
  Q 443.73 126.27 443.97 125.83
  C 451.29 112.62 450.66 95.76 446.98 81.75"
/>
<path stroke="#808080" vector-effect="non-scaling-stroke" d="
  M 446.98 81.75
  C 439.12 50.98 420.38 26.14 387.09 22.04
  Q 369.64 19.88 352.93 25.22"
/>
<path stroke="#efefef" vector-effect="non-scaling-stroke" d="
  M 446.98 81.75
  Q 445.78 81.91 444.65 81.27
  Q 444.23 81.04 444.08 81.49
  C 441.44 89.46 434.22 97.19 425.34 97.58
  Q 424.84 97.60 424.44 97.90
  L 405.96 111.79"
/>
<path stroke="#e18182" vector-effect="non-scaling-stroke" d="
  M 357.44 110.85
  C 343.92 86.19 331.59 49.62 352.93 25.22"
/>
<path stroke="#e18182" vector-effect="non-scaling-stroke" d="
  M 320.97 130.80
  C 305.47 101.72 299.08 65.11 324.37 38.89"
/>
<path stroke="#808080" vector-effect="non-scaling-stroke" d="
  M 390.01 120.34
  Q 394.92 110.12 390.30 100.92
  Q 389.86 100.04 389.74 101.01
  Q 389.65 101.71 389.89 102.28
  Q 390.08 102.74 389.94 103.22
  Q 386.90 113.89 376.27 111.47"
/>
<path stroke="#616161" vector-effect="non-scaling-stroke" d="
  M 376.27 111.47
  L 373.27 109.47
  Q 372.82 109.18 372.41 109.53
  L 361.84 118.90"
/>
<path stroke="#808080" vector-effect="non-scaling-stroke" d="
  M 361.84 118.90
  L 353.64 125.53
  Q 353.17 125.91 353.60 126.32
  Q 358.26 130.78 365.42 132.43"
/>
<path stroke="#786344" vector-effect="non-scaling-stroke" d="
  M 365.42 132.43
  Q 357.15 132.90 350.71 128.50
  Q 350.24 128.18 349.85 128.59
  L 348.38 130.10
  Q 347.83 130.66 347.55 129.93
  L 346.45 126.99"
/>
<path stroke="#616161" vector-effect="non-scaling-stroke" d="
  M 346.45 126.99
  Q 345.64 125.31 346.22 123.09
  A 0.42 0.41 83.7 0 0 345.63 122.61
  L 340.45 125.41
  A 0.64 0.63 -29.2 0 0 340.20 126.27
  L 342.24 129.86"
/>
<path stroke="#786344" vector-effect="non-scaling-stroke" d="
  M 342.24 129.86
  Q 342.61 137.27 338.23 142.82"
/>
<path stroke="#808080" vector-effect="non-scaling-stroke" d="
  M 338.23 142.82
  L 339.73 136.83
  Q 339.96 135.94 339.31 136.59
  Q 333.44 142.46 326.89 138.07"
/>
<path stroke="#616161" vector-effect="non-scaling-stroke" d="
  M 326.89 138.07
  L 324.41 134.66
  Q 324.12 134.26 323.69 134.50
  L 312.24 140.74
  Q 311.75 141.01 311.94 141.53
  Q 312.72 143.71 314.29 144.91"
/>
<path stroke="#808080" vector-effect="non-scaling-stroke" d="
  M 314.29 144.91
  Q 318.35 149.27 324.87 150.34"
/>
<path stroke="#786344" vector-effect="non-scaling-stroke" d="
  M 324.87 150.34
  Q 316.17 152.20 310.25 145.87
  A 0.36 0.36 0.0 0 0 309.63 146.18
  C 310.63 152.19 311.21 156.38 316.19 160.96
  Q 316.54 161.28 317.00 161.26
  Q 327.72 160.75 330.26 170.81
  A 1.21 1.20 -86.0 0 0 330.96 171.62
  Q 345.19 177.67 360.67 176.18
  A 0.99 0.99 0.0 0 0 361.34 175.82
  C 376.44 157.40 390.71 142.45 412.86 132.64
  Q 413.38 132.41 412.98 132.00
  C 403.25 122.28 397.78 109.69 393.83 96.85
  Q 393.64 96.25 393.07 96.52
  L 392.64 96.71
  Q 392.11 96.96 392.38 97.48
  Q 399.00 110.03 390.01 120.34"
/>
<path stroke="#f8e3c4" vector-effect="non-scaling-stroke" d="
  M 324.87 150.34
  Q 333.27 149.32 338.23 142.82"
/>
<path stroke="#d9c4a5" vector-effect="non-scaling-stroke" d="
  M 342.24 129.86
  L 346.45 126.99"
/>
<path stroke="#f8e3c4" vector-effect="non-scaling-stroke" d="
  M 365.42 132.43
  Q 381.09 133.22 390.01 120.34"
/>
<path stroke="#e0e1e0" vector-effect="non-scaling-stroke" d="
  M 361.84 118.90
  L 376.27 111.47"
/>
<path stroke="#e0e1e0" vector-effect="non-scaling-stroke" d="
  M 326.89 138.07
  L 314.29 144.91"
/>
<path stroke="#616161" vector-effect="non-scaling-stroke" d="
  M 387.00 99.94
  L 378.28 104.64
  A 0.04 0.04 0.0 0 0 378.26 104.69
  L 378.29 104.74
  A 4.84 3.93 -28.3 0 0 384.41 105.90
  L 384.67 105.76
  A 4.84 3.93 -28.3 0 0 387.07 100.00
  L 387.05 99.96
  A 0.04 0.04 0.0 0 0 387.00 99.94"
/>
<path stroke="#616161" vector-effect="non-scaling-stroke" d="
  M 357.80 115.93
  Q 353.68 118.26 349.58 120.55
  Q 347.46 121.74 347.75 123.38
  A 0.59 0.59 0.0 0 0 348.69 123.73
  L 358.03 116.26
  A 0.20 0.20 0.0 0 0 357.80 115.93"
/>
<path stroke="#616161" vector-effect="non-scaling-stroke" d="
  M 338.15 126.95
  L 335.07 128.23
  Q 333.67 128.81 335.19 128.70
  Q 336.74 128.59 338.23 128.15
  Q 339.37 127.82 338.87 127.15
  Q 338.59 126.76 338.15 126.95"
/>
<path stroke="#808080" vector-effect="non-scaling-stroke" d="
  M 338.88 132.36
  Q 336.71 132.03 334.76 133.21
  A 0.94 0.92 -55.0 0 1 334.12 133.33
  L 332.03 132.93
  Q 331.37 132.81 331.68 133.40
  C 333.33 136.55 337.64 136.12 339.24 133.08
  Q 339.57 132.46 338.88 132.36"
/>
<path stroke="#7c7320" vector-effect="non-scaling-stroke" d="
  M 300.82 171.13
  L 297.97 168.38
  Q 297.19 167.62 296.11 167.83
  C 290.51 168.93 288.41 172.97 287.76 178.22
  Q 287.59 179.53 287.26 178.25
  L 286.87 176.75
  Q 286.77 176.33 286.47 176.01
  C 281.37 170.50 274.62 163.58 268.20 160.45
  C 266.59 159.66 264.93 160.18 264.73 162.02
  C 263.48 173.36 271.42 184.87 282.89 187.22
  Q 283.53 187.35 283.65 186.72
  L 283.82 185.79
  A 0.34 0.34 0.0 0 1 284.48 185.77
  Q 286.57 193.37 291.66 199.40
  A 0.38 0.38 0.0 0 0 292.33 199.22
  L 292.80 196.52
  A 0.20 0.20 0.0 0 1 293.20 196.54
  Q 294.07 206.79 296.70 216.73
  A 0.51 0.51 0.0 0 0 297.48 217.02
  Q 314.15 205.81 327.04 190.37
  Q 327.47 189.86 326.93 189.45
  L 318.04 182.68
  Q 317.06 181.93 318.24 182.30
  L 319.94 182.81
  A 0.75 0.74 33.4 0 0 320.64 182.67
  C 326.37 177.87 329.26 167.84 319.69 164.90
  C 317.26 164.15 311.99 164.06 312.03 167.84
  Q 312.04 167.98 311.90 167.94
  Q 311.78 167.91 311.68 167.83
  Q 311.56 167.73 311.52 167.51
  C 309.62 157.44 306.57 144.71 300.44 135.85
  C 296.87 130.67 291.18 132.13 291.46 138.61
  C 291.93 149.67 297.24 161.87 301.19 170.87
  Q 301.67 171.95 300.82 171.13"
/>
<path stroke="#808080" vector-effect="non-scaling-stroke" d="
  M 402.65 171.94
  Q 405.28 182.85 398.41 191.19
  Q 397.97 191.72 397.71 191.08
  Q 394.82 184.12 389.11 178.79"
/>
<path stroke="#616161" vector-effect="non-scaling-stroke" d="
  M 389.11 178.79
  Q 384.14 174.27 378.09 174.68"
/>
<path stroke="#620202" vector-effect="non-scaling-stroke" d="
  M 378.09 174.68
  Q 373.31 174.79 369.99 176.41"
/>
<path stroke="#808080" vector-effect="non-scaling-stroke" d="
  M 369.99 176.41
  C 360.02 180.69 353.51 190.47 346.52 198.27
  C 341.57 203.79 335.93 208.86 327.91 205.31
  Q 327.44 205.10 327.09 205.48
  L 322.29 210.69"
/>
<path stroke="#620202" vector-effect="non-scaling-stroke" d="
  M 322.29 210.69
  L 316.85 215.91"
/>
<path stroke="#616161" vector-effect="non-scaling-stroke" d="
  M 316.85 215.91
  L 310.13 221.37
  Q 309.70 221.71 310.06 222.13
  C 324.44 238.69 350.70 232.29 365.28 220.10"
/>
<path stroke="#808080" vector-effect="non-scaling-stroke" d="
  M 365.28 220.10
  Q 374.92 211.99 379.28 200.46
  A 0.25 0.25 0.0 0 1 379.76 200.58
  C 377.09 220.30 360.20 233.70 341.65 237.12
  A 1.87 1.85 6.1 0 0 340.26 238.23
  Q 334.63 251.64 338.71 265.70
  Q 338.85 266.19 339.33 266.02
  L 340.03 265.76
  Q 341.06 265.38 340.46 266.30
  Q 329.46 283.21 329.69 303.47
  Q 329.69 304.00 330.21 303.92
  Q 346.23 301.54 361.29 307.31
  Q 361.81 307.51 362.02 307.00
  C 364.75 300.22 368.92 292.88 374.70 287.99"
/>
<path stroke="#616161" vector-effect="non-scaling-stroke" d="
  M 374.70 287.99
  L 371.97 294.99
  Q 371.78 295.48 372.30 295.60
  C 400.67 302.04 434.79 292.53 439.23 259.31"
/>
<path stroke="#808080" vector-effect="non-scaling-stroke" d="
  M 439.23 259.31
  C 442.50 233.67 419.16 217.62 396.47 229.60
  A 0.36 0.36 0.0 0 1 396.06 229.02
  L 399.07 226.25"
/>
<path stroke="#616161" vector-effect="non-scaling-stroke" d="
  M 399.07 226.25
  Q 403.35 223.01 407.73 221.61
  Q 408.23 221.45 408.10 220.95
  Q 405.40 210.42 406.44 198.68"
/>
<path stroke="#808080" vector-effect="non-scaling-stroke" d="
  M 406.44 198.68
  Q 408.51 188.78 413.06 180.61
  Q 414.57 177.90 414.05 180.96
  L 413.71 182.98
  Q 413.54 183.98 414.36 183.38
  Q 418.82 180.10 424.26 180.53"
/>
<path stroke="#808080" vector-effect="non-scaling-stroke" d="
  M 438.02 187.29
  L 445.47 185.42"
/>
<path stroke="#620202" vector-effect="non-scaling-stroke" d="
  M 445.47 185.42
  C 448.44 185.40 450.31 183.93 449.79 180.74
  Q 447.91 169.41 436.98 165.79
  Q 435.36 165.25 434.75 166.49"
/>
<path stroke="#808080" vector-effect="non-scaling-stroke" d="
  M 434.75 166.49
  L 430.65 165.23"
/>
<path stroke="#616161" vector-effect="non-scaling-stroke" d="
  M 430.65 165.23
  Q 416.12 163.26 401.34 165.16
  Q 400.80 165.23 400.94 165.76
  L 402.65 171.94"
/>
<path stroke="#e0e1e0" vector-effect="non-scaling-stroke" d="
  M 430.65 165.23
  Q 416.55 167.33 402.65 171.94"
/>
<path stroke="#e18182" vector-effect="non-scaling-stroke" d="
  M 434.75 166.49
  C 442.81 169.98 445.06 177.22 445.47 185.42"
/>
<path stroke="#e0e1e0" vector-effect="non-scaling-stroke" d="
  M 406.44 198.68
  Q 399.31 211.28 399.07 226.25"
/>
<path stroke="#e0e1e0" vector-effect="non-scaling-stroke" d="
  M 439.23 259.31
  Q 436.70 263.62 434.12 267.63
  C 421.74 286.88 395.69 290.88 374.70 287.99"
/>
<path stroke="#e0e1e0" vector-effect="non-scaling-stroke" d="
  M 365.28 220.10
  L 363.67 219.91
  Q 363.22 219.86 362.82 220.08
  C 351.76 226.32 333.57 230.31 324.13 219.80"
/>
<path stroke="#e18182" vector-effect="non-scaling-stroke" d="
  M 324.13 219.80
  Q 348.86 225.34 361.16 204.21
  C 366.74 194.62 369.59 184.74 377.50 175.45"
/>
<path stroke="#e0e1e0" vector-effect="non-scaling-stroke" d="
  M 377.50 175.45
  Q 386.04 180.21 386.58 190.17
  A 0.29 0.29 0.0 0 0 387.15 190.26
  Q 389.10 185.17 389.11 178.79"
/>
<path stroke="#c26363" vector-effect="non-scaling-stroke" d="
  M 324.13 219.80
  L 316.85 215.91"
/>
<path stroke="#e18182" vector-effect="non-scaling-stroke" d="
  M 322.29 210.69
  C 342.84 220.69 355.14 202.98 361.99 187.03
  Q 363.16 184.30 369.99 176.41"
/>
<path stroke="#c26363" vector-effect="non-scaling-stroke" d="
  M 377.50 175.45
  Q 377.35 176.04 378.09 174.68"
/>
<path stroke="#7c7320" vector-effect="non-scaling-stroke" d="
  M 455.27 187.49
  L 454.82 185.93
  A 0.30 0.30 0.0 0 0 454.45 185.72
  L 430.97 192.37
  A 0.95 0.70 -15.8 0 0 430.24 193.30
  L 430.47 194.09
  A 0.95 0.70 -15.8 0 0 431.57 194.50
  L 455.06 187.86
  A 0.30 0.30 0.0 0 0 455.27 187.49"
/>
<path stroke="#7c7320" vector-effect="non-scaling-stroke" d="
  M 437.67 203.83
  C 433.08 204.62 429.33 204.70 427.43 209.61
  C 426.10 213.03 427.96 216.62 432.02 216.21
  Q 437.56 215.64 440.53 210.96
  A 2.28 2.28 0.0 0 0 439.15 207.52
  Q 434.49 206.38 432.49 210.72
  A 0.33 0.33 0.0 0 1 431.95 210.81
  Q 431.51 210.36 431.77 209.78
  Q 434.70 203.40 441.51 206.01
  A 1.13 1.09 -47.3 0 0 442.42 205.96
  Q 447.36 203.38 452.62 205.16
  A 0.27 0.27 0.0 0 0 452.87 204.70
  Q 449.32 201.82 444.74 202.60
  A 0.41 0.41 0.0 0 1 444.58 201.80
  L 448.14 200.97
  A 1.02 0.99 -82.0 0 0 448.82 200.44
  L 453.64 190.88
  A 0.44 0.44 0.0 0 0 453.11 190.27
  Q 442.78 193.91 432.06 196.11
  A 0.53 0.53 0.0 0 0 431.66 196.80
  L 433.23 201.70
  Q 433.37 202.13 433.81 202.22
  L 437.68 202.95
  A 0.45 0.45 0.0 0 1 437.67 203.83"
/>
<path stroke="#7c7320" vector-effect="non-scaling-stroke" d="
  M 329.35 192.13
  C 320.09 203.05 310.40 211.88 298.44 219.80
  Q 298.04 220.07 298.00 220.54
  Q 297.86 222.00 298.91 222.95
  Q 299.26 223.26 299.66 223.02
  Q 318.52 211.68 331.93 194.24
  Q 332.41 193.61 331.77 193.15
  L 330.21 192.03
  A 0.64 0.63 38.1 0 0 329.35 192.13"
/>
<path stroke="#7c7320" vector-effect="non-scaling-stroke" d="
  M 446.46 207.28
  C 449.33 210.22 448.92 213.23 446.96 216.54
  Q 446.63 217.09 447.23 216.88
  C 453.61 214.65 450.57 205.10 446.61 206.57
  Q 445.99 206.81 446.46 207.28"
/>
<path stroke="#7c7320" vector-effect="non-scaling-stroke" d="
  M 453.36 211.41
  C 454.43 209.06 454.66 206.93 451.48 206.51
  Q 450.64 206.39 451.15 207.07
  Q 452.51 208.90 452.51 211.23
  A 0.45 0.44 -32.9 0 0 453.36 211.41"
/>
<path stroke="#7c7320" vector-effect="non-scaling-stroke" d="
  M 443.47 208.30
  C 444.90 212.85 439.40 216.80 435.74 217.94
  A 0.40 0.40 0.0 0 0 435.73 218.70
  C 442.56 221.16 449.97 213.65 444.73 207.60
  A 0.74 0.74 0.0 0 0 443.47 208.30"
/>
<path stroke="#808080" vector-effect="non-scaling-stroke" d="
  M 421.23 296.78
  Q 429.46 296.17 437.40 293.79
  Q 437.86 293.64 437.81 293.16
  L 436.87 284.55
  A 0.38 0.37 62.6 0 0 436.22 284.34
  Q 431.13 289.99 424.94 294.31
  C 423.50 295.31 421.24 295.70 419.88 296.66
  Q 419.44 296.97 419.98 297.03
  Q 420.21 297.05 420.43 296.99
  Q 421.19 296.79 421.23 296.78"
/>
<path stroke="#7c7320" vector-effect="non-scaling-stroke" d="
  M 412.44 301.85
  Q 425.05 303.30 437.23 299.77
  A 0.63 0.63 0.0 0 0 437.21 298.56
  Q 436.18 298.30 434.72 298.64
  Q 426.01 300.69 417.05 301.26
  C 415.81 301.34 413.86 301.00 412.42 301.28
  Q 410.60 301.63 412.44 301.85"
/>
<path stroke="#7c7320" vector-effect="non-scaling-stroke" d="
  M 416.10 313.57
  L 396.14 323.17
  A 0.25 0.25 0.0 0 0 396.20 323.64
  Q 415.50 328.08 434.90 323.97
  Q 436.26 323.68 435.74 322.40
  L 433.21 316.07
  Q 433.01 315.58 433.24 315.10
  Q 435.99 309.33 437.03 303.02
  Q 437.13 302.41 436.53 302.56
  Q 425.30 305.34 413.78 304.55
  A 0.45 0.45 0.0 0 0 413.33 305.17
  L 416.45 312.64
  Q 416.71 313.27 416.10 313.57"
/>
<path stroke="#7c7320" vector-effect="non-scaling-stroke" d="
  M 331.13 310.07
  C 340.64 308.64 350.24 310.23 359.14 313.69
  Q 359.71 313.91 359.87 313.32
  L 360.50 311.09
  Q 360.64 310.60 360.15 310.47
  Q 345.85 306.58 331.09 308.28
  Q 330.21 308.38 330.09 308.94
  A 0.93 0.92 2.5 0 0 331.13 310.07"
/>
<path stroke="#7c7320" vector-effect="non-scaling-stroke" d="
  M 336.16 331.87
  L 333.83 330.12
  Q 333.45 329.84 333.03 330.06
  L 313.93 339.93
  Q 312.90 340.46 314.05 340.61
  Q 336.97 343.47 360.03 341.85
  Q 360.61 341.81 360.43 341.25
  C 359.09 336.89 357.07 332.55 357.28 328.01
  Q 357.54 322.55 358.85 317.47
  Q 359.13 316.38 358.10 315.97
  Q 345.33 310.84 331.62 312.42
  Q 330.69 312.53 330.81 313.45
  Q 332.07 323.01 336.62 331.47
  A 0.31 0.31 0.0 0 1 336.16 331.87"
/>
<path stroke="#786344" vector-effect="non-scaling-stroke" d="
  M 398.14 115.97
  Q 395.23 128.58 384.03 135.08
  A 0.24 0.24 0.0 0 0 384.21 135.52
  C 393.21 133.06 400.18 125.90 398.51 115.98
  A 0.19 0.19 0.0 0 0 398.14 115.97"
/>
<path stroke="#d9c4a5" vector-effect="non-scaling-stroke" d="
  M 400.18 122.95
  Q 398.92 127.17 395.81 130.20
  A 0.38 0.38 0.0 0 0 396.27 130.79
  Q 400.56 128.17 400.61 123.01
  A 0.22 0.22 0.0 0 0 400.18 122.95"
/>
<path stroke="#e0e0be" vector-effect="non-scaling-stroke" d="
  M 388.28 326.68
  L 397.99 332.00"
/>
</g>
<path fill="#000000" d="
  M 506.00 125.35
  L 506.00 133.56
  C 494.31 118.35 476.47 107.25 457.10 105.23
  Q 456.57 105.18 456.52 105.71
  Q 455.38 116.84 449.73 126.43
  Q 449.42 126.96 450.02 127.07
  Q 463.02 129.38 474.21 136.32
  Q 475.99 137.42 474.03 136.71
  C 430.50 120.90 397.08 140.14 369.61 172.53
  A 0.17 0.17 0.0 0 0 369.82 172.79
  C 381.95 166.51 393.60 172.64 399.02 184.33
  A 0.24 0.23 -54.5 0 0 399.47 184.25
  Q 400.92 172.23 393.32 162.95
  Q 392.57 162.03 393.73 161.83
  C 415.52 158.04 438.92 158.20 459.81 165.43
  Q 484.29 173.89 506.00 188.93
  L 506.00 197.52
  Q 481.71 177.59 451.57 168.42
  Q 449.76 167.86 448.44 168.01
  A 0.52 0.52 0.0 0 0 448.06 168.80
  C 450.70 172.96 453.19 175.85 453.20 181.54
  A 0.98 0.98 0.0 0 0 453.71 182.40
  Q 455.16 183.17 456.75 182.46
  A 0.68 0.68 0.0 0 1 457.66 183.31
  Q 455.80 188.50 454.01 194.01
  C 453.40 195.85 451.81 198.44 451.76 201.13
  A 0.86 0.85 -76.3 0 0 452.23 201.91
  C 457.40 204.47 457.85 209.33 455.06 213.98
  C 451.86 219.32 445.26 222.73 438.92 221.32
  C 435.77 220.62 433.18 218.81 430.37 217.55
  C 422.72 214.11 424.01 206.82 430.40 203.01
  A 1.40 1.40 0.0 0 0 430.94 201.20
  L 426.40 191.84
  A 1.02 1.02 0.0 0 1 427.12 190.40
  L 429.53 189.94
  A 1.15 1.15 0.0 0 0 430.15 188.02
  C 424.28 181.91 413.28 183.98 412.24 193.30
  C 411.77 197.52 411.60 221.00 417.75 221.70
  C 441.24 224.38 449.49 248.27 443.68 268.60
  C 442.80 271.65 440.23 275.51 441.06 279.64
  Q 444.85 298.59 437.06 316.31
  A 1.49 1.47 47.3 0 0 437.02 317.41
  L 439.79 324.99
  A 1.03 1.03 0.0 0 1 439.60 326.02
  Q 438.24 327.60 436.06 327.81
  Q 415.83 329.78 396.41 328.13
  L 388.28 326.68
  L 384.49 325.01
  A 0.44 0.43 -45.5 0 1 384.49 324.22
  L 410.52 312.16
  A 0.65 0.64 -33.5 0 0 410.73 311.15
  L 403.41 302.75
  Q 402.98 302.26 402.33 302.37
  Q 386.09 305.09 370.04 301.50
  A 0.54 0.53 16.0 0 0 369.43 301.83
  C 366.80 308.71 361.91 323.81 364.24 330.83
  Q 366.59 337.92 369.58 344.77
  C 369.88 345.46 369.71 346.16 369.29 346.70
  Q 369.28 346.58 369.23 346.44
  Q 369.19 346.33 369.07 346.33
  C 349.94 346.19 330.11 347.50 311.21 344.32
  C 308.90 343.93 305.41 343.80 302.53 342.64
  A 0.61 0.61 0.0 0 1 302.46 341.54
  L 328.98 326.66
  A 1.57 1.57 0.0 0 0 329.63 324.60
  C 321.37 307.53 322.90 288.72 333.06 272.84
  A 1.54 1.53 59.8 0 0 333.30 271.92
  C 333.12 268.36 332.07 264.52 331.87 261.58
  Q 331.08 250.06 334.60 238.83
  A 1.06 1.05 -80.9 0 0 333.61 237.46
  C 323.53 237.33 313.00 234.02 306.60 225.69
  A 2.28 2.27 -33.1 0 0 303.69 225.08
  L 299.19 227.58
  A 1.95 1.94 -22.1 0 1 296.37 226.39
  C 294.81 220.72 293.55 214.84 292.77 208.89
  C 291.95 202.71 287.37 199.06 285.46 193.01
  C 284.02 188.48 278.23 190.11 274.03 187.21
  Q 260.70 177.98 262.04 162.58
  Q 262.49 157.41 268.20 158.29
  C 272.92 159.01 281.57 167.57 285.48 170.80
  A 1.30 1.30 0.0 0 0 287.44 170.43
  Q 289.74 166.31 294.23 164.86
  A 1.17 1.16 -21.7 0 0 294.93 163.25
  Q 289.25 151.36 287.04 138.24
  C 286.38 134.38 283.53 128.23 282.46 123.85
  C 270.41 74.40 309.39 30.59 354.90 19.22
  C 380.65 12.78 410.29 16.89 429.89 36.25
  C 444.01 50.18 452.69 72.68 455.66 92.01
  C 456.00 94.24 455.81 97.63 456.40 100.40
  Q 456.51 100.92 457.03 100.92
  C 475.63 101.01 494.27 111.62 506.00 125.35
  Z
  M 352.93 25.22
  C 343.75 26.36 331.26 33.93 324.37 38.89
  C 293.95 58.60 277.89 92.82 288.12 128.77
  Q 288.28 129.33 288.75 128.98
  C 296.47 123.15 303.70 131.44 306.10 138.19
  Q 306.30 138.76 306.83 138.47
  L 320.97 130.80
  L 357.44 110.85
  L 397.63 88.86
  Q 398.18 88.56 398.32 89.17
  Q 400.93 100.57 405.96 111.79
  Q 410.38 122.25 419.43 129.52
  A 1.05 1.03 54.5 0 0 420.39 129.69
  Q 431.51 125.99 443.23 126.25
  Q 443.73 126.27 443.97 125.83
  C 451.29 112.62 450.66 95.76 446.98 81.75
  C 439.12 50.98 420.38 26.14 387.09 22.04
  Q 369.64 19.88 352.93 25.22
  Z
  M 390.01 120.34
  Q 394.92 110.12 390.30 100.92
  Q 389.86 100.04 389.74 101.01
  Q 389.65 101.71 389.89 102.28
  Q 390.08 102.74 389.94 103.22
  Q 386.90 113.89 376.27 111.47
  L 373.27 109.47
  Q 372.82 109.18 372.41 109.53
  L 361.84 118.90
  L 353.64 125.53
  Q 353.17 125.91 353.60 126.32
  Q 358.26 130.78 365.42 132.43
  Q 357.15 132.90 350.71 128.50
  Q 350.24 128.18 349.85 128.59
  L 348.38 130.10
  Q 347.83 130.66 347.55 129.93
  L 346.45 126.99
  Q 345.64 125.31 346.22 123.09
  A 0.42 0.41 83.7 0 0 345.63 122.61
  L 340.45 125.41
  A 0.64 0.63 -29.2 0 0 340.20 126.27
  L 342.24 129.86
  Q 342.61 137.27 338.23 142.82
  L 339.73 136.83
  Q 339.96 135.94 339.31 136.59
  Q 333.44 142.46 326.89 138.07
  L 324.41 134.66
  Q 324.12 134.26 323.69 134.50
  L 312.24 140.74
  Q 311.75 141.01 311.94 141.53
  Q 312.72 143.71 314.29 144.91
  Q 318.35 149.27 324.87 150.34
  Q 316.17 152.20 310.25 145.87
  A 0.36 0.36 0.0 0 0 309.63 146.18
  C 310.63 152.19 311.21 156.38 316.19 160.96
  Q 316.54 161.28 317.00 161.26
  Q 327.72 160.75 330.26 170.81
  A 1.21 1.20 -86.0 0 0 330.96 171.62
  Q 345.19 177.67 360.67 176.18
  A 0.99 0.99 0.0 0 0 361.34 175.82
  C 376.44 157.40 390.71 142.45 412.86 132.64
  Q 413.38 132.41 412.98 132.00
  C 403.25 122.28 397.78 109.69 393.83 96.85
  Q 393.64 96.25 393.07 96.52
  L 392.64 96.71
  Q 392.11 96.96 392.38 97.48
  Q 399.00 110.03 390.01 120.34
  Z
  M 387.00 99.94
  L 378.28 104.64
  A 0.04 0.04 0.0 0 0 378.26 104.69
  L 378.29 104.74
  A 4.84 3.93 -28.3 0 0 384.41 105.90
  L 384.67 105.76
  A 4.84 3.93 -28.3 0 0 387.07 100.00
  L 387.05 99.96
  A 0.04 0.04 0.0 0 0 387.00 99.94
  Z
  M 357.80 115.93
  Q 353.68 118.26 349.58 120.55
  Q 347.46 121.74 347.75 123.38
  A 0.59 0.59 0.0 0 0 348.69 123.73
  L 358.03 116.26
  A 0.20 0.20 0.0 0 0 357.80 115.93
  Z
  M 338.15 126.95
  L 335.07 128.23
  Q 333.67 128.81 335.19 128.70
  Q 336.74 128.59 338.23 128.15
  Q 339.37 127.82 338.87 127.15
  Q 338.59 126.76 338.15 126.95
  Z
  M 338.88 132.36
  Q 336.71 132.03 334.76 133.21
  A 0.94 0.92 -55.0 0 1 334.12 133.33
  L 332.03 132.93
  Q 331.37 132.81 331.68 133.40
  C 333.33 136.55 337.64 136.12 339.24 133.08
  Q 339.57 132.46 338.88 132.36
  Z
  M 300.82 171.13
  L 297.97 168.38
  Q 297.19 167.62 296.11 167.83
  C 290.51 168.93 288.41 172.97 287.76 178.22
  Q 287.59 179.53 287.26 178.25
  L 286.87 176.75
  Q 286.77 176.33 286.47 176.01
  C 281.37 170.50 274.62 163.58 268.20 160.45
  C 266.59 159.66 264.93 160.18 264.73 162.02
  C 263.48 173.36 271.42 184.87 282.89 187.22
  Q 283.53 187.35 283.65 186.72
  L 283.82 185.79
  A 0.34 0.34 0.0 0 1 284.48 185.77
  Q 286.57 193.37 291.66 199.40
  A 0.38 0.38 0.0 0 0 292.33 199.22
  L 292.80 196.52
  A 0.20 0.20 0.0 0 1 293.20 196.54
  Q 294.07 206.79 296.70 216.73
  A 0.51 0.51 0.0 0 0 297.48 217.02
  Q 314.15 205.81 327.04 190.37
  Q 327.47 189.86 326.93 189.45
  L 318.04 182.68
  Q 317.06 181.93 318.24 182.30
  L 319.94 182.81
  A 0.75 0.74 33.4 0 0 320.64 182.67
  C 326.37 177.87 329.26 167.84 319.69 164.90
  C 317.26 164.15 311.99 164.06 312.03 167.84
  Q 312.04 167.98 311.90 167.94
  Q 311.78 167.91 311.68 167.83
  Q 311.56 167.73 311.52 167.51
  C 309.62 157.44 306.57 144.71 300.44 135.85
  C 296.87 130.67 291.18 132.13 291.46 138.61
  C 291.93 149.67 297.24 161.87 301.19 170.87
  Q 301.67 171.95 300.82 171.13
  Z
  M 402.65 171.94
  Q 405.28 182.85 398.41 191.19
  Q 397.97 191.72 397.71 191.08
  Q 394.82 184.12 389.11 178.79
  Q 384.14 174.27 378.09 174.68
  Q 373.31 174.79 369.99 176.41
  C 360.02 180.69 353.51 190.47 346.52 198.27
  C 341.57 203.79 335.93 208.86 327.91 205.31
  Q 327.44 205.10 327.09 205.48
  L 322.29 210.69
  L 316.85 215.91
  L 310.13 221.37
  Q 309.70 221.71 310.06 222.13
  C 324.44 238.69 350.70 232.29 365.28 220.10
  Q 374.92 211.99 379.28 200.46
  A 0.25 0.25 0.0 0 1 379.76 200.58
  C 377.09 220.30 360.20 233.70 341.65 237.12
  A 1.87 1.85 6.1 0 0 340.26 238.23
  Q 334.63 251.64 338.71 265.70
  Q 338.85 266.19 339.33 266.02
  L 340.03 265.76
  Q 341.06 265.38 340.46 266.30
  Q 329.46 283.21 329.69 303.47
  Q 329.69 304.00 330.21 303.92
  Q 346.23 301.54 361.29 307.31
  Q 361.81 307.51 362.02 307.00
  C 364.75 300.22 368.92 292.88 374.70 287.99
  L 371.97 294.99
  Q 371.78 295.48 372.30 295.60
  C 400.67 302.04 434.79 292.53 439.23 259.31
  C 442.50 233.67 419.16 217.62 396.47 229.60
  A 0.36 0.36 0.0 0 1 396.06 229.02
  L 399.07 226.25
  Q 403.35 223.01 407.73 221.61
  Q 408.23 221.45 408.10 220.95
  Q 405.40 210.42 406.44 198.68
  Q 408.51 188.78 413.06 180.61
  Q 414.57 177.90 414.05 180.96
  L 413.71 182.98
  Q 413.54 183.98 414.36 183.38
  Q 418.82 180.10 424.26 180.53
  Q 429.49 181.83 432.26 186.24
  C 434.14 189.24 435.23 189.01 438.02 187.29
  L 445.47 185.42
  C 448.44 185.40 450.31 183.93 449.79 180.74
  Q 447.91 169.41 436.98 165.79
  Q 435.36 165.25 434.75 166.49
  L 430.65 165.23
  Q 416.12 163.26 401.34 165.16
  Q 400.80 165.23 400.94 165.76
  L 402.65 171.94
  Z
  M 329.11 176.08
  L 324.53 183.92
  A 1.39 1.38 -64.1 0 0 325.22 185.91
  Q 331.11 188.23 335.99 192.27
  A 1.47 1.46 -51.2 0 1 336.21 194.31
  L 331.73 200.02
  A 1.32 1.32 0.0 0 0 333.00 202.13
  C 342.12 200.46 350.81 189.20 356.37 182.25
  A 1.12 1.12 0.0 0 0 355.50 180.43
  Q 342.50 180.47 330.49 175.61
  A 1.12 1.11 -63.7 0 0 329.11 176.08
  Z
  M 455.27 187.49
  L 454.82 185.93
  A 0.30 0.30 0.0 0 0 454.45 185.72
  L 430.97 192.37
  A 0.95 0.70 -15.8 0 0 430.24 193.30
  L 430.47 194.09
  A 0.95 0.70 -15.8 0 0 431.57 194.50
  L 455.06 187.86
  A 0.30 0.30 0.0 0 0 455.27 187.49
  Z
  M 437.67 203.83
  C 433.08 204.62 429.33 204.70 427.43 209.61
  C 426.10 213.03 427.96 216.62 432.02 216.21
  Q 437.56 215.64 440.53 210.96
  A 2.28 2.28 0.0 0 0 439.15 207.52
  Q 434.49 206.38 432.49 210.72
  A 0.33 0.33 0.0 0 1 431.95 210.81
  Q 431.51 210.36 431.77 209.78
  Q 434.70 203.40 441.51 206.01
  A 1.13 1.09 -47.3 0 0 442.42 205.96
  Q 447.36 203.38 452.62 205.16
  A 0.27 0.27 0.0 0 0 452.87 204.70
  Q 449.32 201.82 444.74 202.60
  A 0.41 0.41 0.0 0 1 444.58 201.80
  L 448.14 200.97
  A 1.02 0.99 -82.0 0 0 448.82 200.44
  L 453.64 190.88
  A 0.44 0.44 0.0 0 0 453.11 190.27
  Q 442.78 193.91 432.06 196.11
  A 0.53 0.53 0.0 0 0 431.66 196.80
  L 433.23 201.70
  Q 433.37 202.13 433.81 202.22
  L 437.68 202.95
  A 0.45 0.45 0.0 0 1 437.67 203.83
  Z
  M 329.35 192.13
  C 320.09 203.05 310.40 211.88 298.44 219.80
  Q 298.04 220.07 298.00 220.54
  Q 297.86 222.00 298.91 222.95
  Q 299.26 223.26 299.66 223.02
  Q 318.52 211.68 331.93 194.24
  Q 332.41 193.61 331.77 193.15
  L 330.21 192.03
  A 0.64 0.63 38.1 0 0 329.35 192.13
  Z
  M 446.46 207.28
  C 449.33 210.22 448.92 213.23 446.96 216.54
  Q 446.63 217.09 447.23 216.88
  C 453.61 214.65 450.57 205.10 446.61 206.57
  Q 445.99 206.81 446.46 207.28
  Z
  M 453.36 211.41
  C 454.43 209.06 454.66 206.93 451.48 206.51
  Q 450.64 206.39 451.15 207.07
  Q 452.51 208.90 452.51 211.23
  A 0.45 0.44 -32.9 0 0 453.36 211.41
  Z
  M 443.47 208.30
  C 444.90 212.85 439.40 216.80 435.74 217.94
  A 0.40 0.40 0.0 0 0 435.73 218.70
  C 442.56 221.16 449.97 213.65 444.73 207.60
  A 0.74 0.74 0.0 0 0 443.47 208.30
  Z
  M 421.23 296.78
  Q 429.46 296.17 437.40 293.79
  Q 437.86 293.64 437.81 293.16
  L 436.87 284.55
  A 0.38 0.37 62.6 0 0 436.22 284.34
  Q 431.13 289.99 424.94 294.31
  C 423.50 295.31 421.24 295.70 419.88 296.66
  Q 419.44 296.97 419.98 297.03
  Q 420.21 297.05 420.43 296.99
  Q 421.19 296.79 421.23 296.78
  Z
  M 412.44 301.85
  Q 425.05 303.30 437.23 299.77
  A 0.63 0.63 0.0 0 0 437.21 298.56
  Q 436.18 298.30 434.72 298.64
  Q 426.01 300.69 417.05 301.26
  C 415.81 301.34 413.86 301.00 412.42 301.28
  Q 410.60 301.63 412.44 301.85
  Z
  M 416.10 313.57
  L 396.14 323.17
  A 0.25 0.25 0.0 0 0 396.20 323.64
  Q 415.50 328.08 434.90 323.97
  Q 436.26 323.68 435.74 322.40
  L 433.21 316.07
  Q 433.01 315.58 433.24 315.10
  Q 435.99 309.33 437.03 303.02
  Q 437.13 302.41 436.53 302.56
  Q 425.30 305.34 413.78 304.55
  A 0.45 0.45 0.0 0 0 413.33 305.17
  L 416.45 312.64
  Q 416.71 313.27 416.10 313.57
  Z
  M 331.13 310.07
  C 340.64 308.64 350.24 310.23 359.14 313.69
  Q 359.71 313.91 359.87 313.32
  L 360.50 311.09
  Q 360.64 310.60 360.15 310.47
  Q 345.85 306.58 331.09 308.28
  Q 330.21 308.38 330.09 308.94
  A 0.93 0.92 2.5 0 0 331.13 310.07
  Z
  M 336.16 331.87
  L 333.83 330.12
  Q 333.45 329.84 333.03 330.06
  L 313.93 339.93
  Q 312.90 340.46 314.05 340.61
  Q 336.97 343.47 360.03 341.85
  Q 360.61 341.81 360.43 341.25
  C 359.09 336.89 357.07 332.55 357.28 328.01
  Q 357.54 322.55 358.85 317.47
  Q 359.13 316.38 358.10 315.97
  Q 345.33 310.84 331.62 312.42
  Q 330.69 312.53 330.81 313.45
  Q 332.07 323.01 336.62 331.47
  A 0.31 0.31 0.0 0 1 336.16 331.87
  Z"
/>
<path fill="#ffffff" d="
  M 446.98 81.75
  Q 445.78 81.91 444.65 81.27
  Q 444.23 81.04 444.08 81.49
  C 441.44 89.46 434.22 97.19 425.34 97.58
  Q 424.84 97.60 424.44 97.90
  L 405.96 111.79
  Q 400.93 100.57 398.32 89.17
  Q 398.18 88.56 397.63 88.86
  L 357.44 110.85
  C 343.92 86.19 331.59 49.62 352.93 25.22
  Q 369.64 19.88 387.09 22.04
  C 420.38 26.14 439.12 50.98 446.98 81.75
  Z"
/>
<path fill="#c30304" d="
  M 352.93 25.22
  C 331.59 49.62 343.92 86.19 357.44 110.85
  L 320.97 130.80
  C 305.47 101.72 299.08 65.11 324.37 38.89
  C 331.26 33.93 343.75 26.36 352.93 25.22
  Z"
/>
<path fill="#ffffff" d="
  M 324.37 38.89
  C 299.08 65.11 305.47 101.72 320.97 130.80
  L 306.83 138.47
  Q 306.30 138.76 306.10 138.19
  C 303.70 131.44 296.47 123.15 288.75 128.98
  Q 288.28 129.33 288.12 128.77
  C 277.89 92.82 293.95 58.60 324.37 38.89
  Z"
/>
<path fill="#dedede" d="
  M 446.98 81.75
  C 450.66 95.76 451.29 112.62 443.97 125.83
  Q 443.73 126.27 443.23 126.25
  Q 431.51 125.99 420.39 129.69
  A 1.05 1.03 54.5 0 1 419.43 129.52
  Q 410.38 122.25 405.96 111.79
  L 424.44 97.90
  Q 424.84 97.60 425.34 97.58
  C 434.22 97.19 441.44 89.46 444.08 81.49
  Q 444.23 81.04 444.65 81.27
  Q 445.78 81.91 446.98 81.75
  Z"
/>
<path fill="#f0c688" d="
  M 324.87 150.34
  Q 333.27 149.32 338.23 142.82
  Q 342.61 137.27 342.24 129.86
  L 346.45 126.99
  L 347.55 129.93
  Q 347.83 130.66 348.38 130.10
  L 349.85 128.59
  Q 350.24 128.18 350.71 128.50
  Q 357.15 132.90 365.42 132.43
  Q 381.09 133.22 390.01 120.34
  Q 399.00 110.03 392.38 97.48
  Q 392.11 96.96 392.64 96.71
  L 393.07 96.52
  Q 393.64 96.25 393.83 96.85
  C 397.78 109.69 403.25 122.28 412.98 132.00
  Q 413.38 132.41 412.86 132.64
  C 390.71 142.45 376.44 157.40 361.34 175.82
  A 0.99 0.99 0.0 0 1 360.67 176.18
  Q 345.19 177.67 330.96 171.62
  A 1.21 1.20 -86.0 0 1 330.26 170.81
  Q 327.72 160.75 317.00 161.26
  Q 316.54 161.28 316.19 160.96
  C 311.21 156.38 310.63 152.19 309.63 146.18
  A 0.36 0.36 0.0 0 1 310.25 145.87
  Q 316.17 152.20 324.87 150.34
  Z
  M 398.14 115.97
  Q 395.23 128.58 384.03 135.08
  A 0.24 0.24 0.0 0 0 384.21 135.52
  C 393.21 133.06 400.18 125.90 398.51 115.98
  A 0.19 0.19 0.0 0 0 398.14 115.97
  Z
  M 400.18 122.95
  Q 398.92 127.17 395.81 130.20
  A 0.38 0.38 0.0 0 0 396.27 130.79
  Q 400.56 128.17 400.61 123.01
  A 0.22 0.22 0.0 0 0 400.18 122.95
  Z"
/>
<path fill="#c1c2c1" d="
  M 387.00 99.94
  A 0.04 0.04 0.0 0 1 387.05 99.96
  L 387.07 100.00
  A 4.84 3.93 -28.3 0 1 384.67 105.76
  L 384.41 105.90
  A 4.84 3.93 -28.3 0 1 378.29 104.74
  L 378.26 104.69
  A 0.04 0.04 0.0 0 1 378.28 104.64
  L 387.00 99.94
  Z"
/>
<path fill="#ffffff" d="
  M 390.01 120.34
  Q 381.09 133.22 365.42 132.43
  Q 358.26 130.78 353.60 126.32
  Q 353.17 125.91 353.64 125.53
  L 361.84 118.90
  L 376.27 111.47
  Q 386.90 113.89 389.94 103.22
  Q 390.08 102.74 389.89 102.28
  Q 389.65 101.71 389.74 101.01
  Q 389.86 100.04 390.30 100.92
  Q 394.92 110.12 390.01 120.34
  Z"
/>
<path fill="#ffffff" d="
  M 506.00 133.56
  L 506.00 188.93
  Q 484.29 173.89 459.81 165.43
  C 438.92 158.20 415.52 158.04 393.73 161.83
  Q 392.57 162.03 393.32 162.95
  Q 400.92 172.23 399.47 184.25
  A 0.24 0.23 -54.5 0 1 399.02 184.33
  C 393.60 172.64 381.95 166.51 369.82 172.79
  A 0.17 0.17 0.0 0 1 369.61 172.53
  C 397.08 140.14 430.50 120.90 474.03 136.71
  Q 475.99 137.42 474.21 136.32
  Q 463.02 129.38 450.02 127.07
  Q 449.42 126.96 449.73 126.43
  Q 455.38 116.84 456.52 105.71
  Q 456.57 105.18 457.10 105.23
  C 476.47 107.25 494.31 118.35 506.00 133.56
  Z"
/>
<path fill="#c1c2c1" d="
  M 376.27 111.47
  L 361.84 118.90
  L 372.41 109.53
  Q 372.82 109.18 373.27 109.47
  L 376.27 111.47
  Z"
/>
<path fill="#c1c2c1" d="
  M 358.03 116.26
  L 348.69 123.73
  A 0.59 0.59 0.0 0 1 347.75 123.38
  Q 347.46 121.74 349.58 120.55
  Q 353.68 118.26 357.80 115.93
  A 0.20 0.20 0.0 0 1 358.03 116.26
  Z"
/>
<path fill="#000000" d="
  M 398.14 115.97
  A 0.19 0.19 0.0 0 1 398.51 115.98
  C 400.18 125.90 393.21 133.06 384.21 135.52
  A 0.24 0.24 0.0 0 1 384.03 135.08
  Q 395.23 128.58 398.14 115.97
  Z"
/>
<path fill="#c1c2c1" d="
  M 346.45 126.99
  L 342.24 129.86
  L 340.20 126.27
  A 0.64 0.63 -29.2 0 1 340.45 125.41
  L 345.63 122.61
  A 0.42 0.41 83.7 0 1 346.22 123.09
  Q 345.64 125.31 346.45 126.99
  Z"
/>
<path fill="#c1c2c1" d="
  M 400.18 122.95
  A 0.22 0.22 0.0 0 1 400.61 123.01
  Q 400.56 128.17 396.27 130.79
  A 0.38 0.38 0.0 0 1 395.81 130.20
  Q 398.92 127.17 400.18 122.95
  Z"
/>
<path fill="#c1c2c1" d="
  M 338.15 126.95
  Q 338.59 126.76 338.87 127.15
  Q 339.37 127.82 338.23 128.15
  Q 336.74 128.59 335.19 128.70
  Q 333.67 128.81 335.07 128.23
  L 338.15 126.95
  Z"
/>
<path fill="#ffffff" d="
  M 339.24 133.08
  C 337.64 136.12 333.33 136.55 331.68 133.40
  Q 331.37 132.81 332.03 132.93
  L 334.12 133.33
  A 0.94 0.92 -55.0 0 0 334.76 133.21
  Q 336.71 132.03 338.88 132.36
  Q 339.57 132.46 339.24 133.08
  Z"
/>
<path fill="#f7e640" d="
  M 301.19 170.87
  C 297.24 161.87 291.93 149.67 291.46 138.61
  C 291.18 132.13 296.87 130.67 300.44 135.85
  C 306.57 144.71 309.62 157.44 311.52 167.51
  Q 311.56 167.73 311.68 167.83
  Q 311.78 167.91 311.90 167.94
  Q 312.04 167.98 312.03 167.84
  C 311.99 164.06 317.26 164.15 319.69 164.90
  C 329.26 167.84 326.37 177.87 320.64 182.67
  A 0.75 0.74 33.4 0 1 319.94 182.81
  L 318.24 182.30
  Q 317.06 181.93 318.04 182.68
  L 326.93 189.45
  Q 327.47 189.86 327.04 190.37
  Q 314.15 205.81 297.48 217.02
  A 0.51 0.51 0.0 0 1 296.70 216.73
  Q 294.07 206.79 293.20 196.54
  A 0.20 0.20 0.0 0 0 292.80 196.52
  L 292.33 199.22
  A 0.38 0.38 0.0 0 1 291.66 199.40
  Q 286.57 193.37 284.48 185.77
  A 0.34 0.34 0.0 0 0 283.82 185.79
  L 283.65 186.72
  Q 283.53 187.35 282.89 187.22
  C 271.42 184.87 263.48 173.36 264.73 162.02
  C 264.93 160.18 266.59 159.66 268.20 160.45
  C 274.62 163.58 281.37 170.50 286.47 176.01
  Q 286.77 176.33 286.87 176.75
  L 287.26 178.25
  Q 287.59 179.53 287.76 178.22
  C 288.41 172.97 290.51 168.93 296.11 167.83
  Q 297.19 167.62 297.97 168.38
  L 300.82 171.13
  Q 301.67 171.95 301.19 170.87
  Z"
/>
<path fill="#c1c2c1" d="
  M 326.89 138.07
  L 314.29 144.91
  Q 312.72 143.71 311.94 141.53
  Q 311.75 141.01 312.24 140.74
  L 323.69 134.50
  Q 324.12 134.26 324.41 134.66
  L 326.89 138.07
  Z"
/>
<path fill="#ffffff" d="
  M 338.23 142.82
  Q 333.27 149.32 324.87 150.34
  Q 318.35 149.27 314.29 144.91
  L 326.89 138.07
  Q 333.44 142.46 339.31 136.59
  Q 339.96 135.94 339.73 136.83
  L 338.23 142.82
  Z"
/>
<path fill="#c1c2c1" d="
  M 430.65 165.23
  Q 416.55 167.33 402.65 171.94
  L 400.94 165.76
  Q 400.80 165.23 401.34 165.16
  Q 416.12 163.26 430.65 165.23
  Z"
/>
<path fill="#ffffff" d="
  M 430.65 165.23
  L 434.75 166.49
  C 442.81 169.98 445.06 177.22 445.47 185.42
  L 438.02 187.29
  Q 437.63 183.77 434.92 180.38
  Q 434.60 179.98 434.55 179.46
  C 433.99 173.88 428.56 173.58 423.50 173.27
  A 1.22 1.18 -60.8 0 0 422.70 173.51
  C 419.72 175.70 420.00 179.56 424.26 180.53
  Q 418.82 180.10 414.36 183.38
  Q 413.54 183.98 413.71 182.98
  L 414.05 180.96
  Q 414.57 177.90 413.06 180.61
  Q 408.51 188.78 406.44 198.68
  Q 399.31 211.28 399.07 226.25
  L 396.06 229.02
  A 0.36 0.36 0.0 0 0 396.47 229.60
  C 419.16 217.62 442.50 233.67 439.23 259.31
  Q 436.70 263.62 434.12 267.63
  C 421.74 286.88 395.69 290.88 374.70 287.99
  C 368.92 292.88 364.75 300.22 362.02 307.00
  Q 361.81 307.51 361.29 307.31
  Q 346.23 301.54 330.21 303.92
  Q 329.69 304.00 329.69 303.47
  Q 329.46 283.21 340.46 266.30
  Q 341.06 265.38 340.03 265.76
  L 339.33 266.02
  Q 338.85 266.19 338.71 265.70
  Q 334.63 251.64 340.26 238.23
  A 1.87 1.85 6.1 0 1 341.65 237.12
  C 360.20 233.70 377.09 220.30 379.76 200.58
  A 0.25 0.25 0.0 0 0 379.28 200.46
  Q 374.92 211.99 365.28 220.10
  L 363.67 219.91
  Q 363.22 219.86 362.82 220.08
  C 351.76 226.32 333.57 230.31 324.13 219.80
  Q 348.86 225.34 361.16 204.21
  C 366.74 194.62 369.59 184.74 377.50 175.45
  Q 386.04 180.21 386.58 190.17
  A 0.29 0.29 0.0 0 0 387.15 190.26
  Q 389.10 185.17 389.11 178.79
  Q 394.82 184.12 397.71 191.08
  Q 397.97 191.72 398.41 191.19
  Q 405.28 182.85 402.65 171.94
  Q 416.55 167.33 430.65 165.23
  Z"
/>
<path fill="#c30304" d="
  M 445.47 185.42
  C 445.06 177.22 442.81 169.98 434.75 166.49
  Q 435.36 165.25 436.98 165.79
  Q 447.91 169.41 449.79 180.74
  C 450.31 183.93 448.44 185.40 445.47 185.42
  Z"
/>
<path fill="#c1c2c1" d="
  M 389.11 178.79
  Q 389.10 185.17 387.15 190.26
  A 0.29 0.29 0.0 0 1 386.58 190.17
  Q 386.04 180.21 377.50 175.45
  Q 377.35 176.04 378.09 174.68
  Q 384.14 174.27 389.11 178.79
  Z"
/>
<path fill="#c30304" d="
  M 378.09 174.68
  Q 377.35 176.04 377.50 175.45
  C 369.59 184.74 366.74 194.62 361.16 204.21
  Q 348.86 225.34 324.13 219.80
  L 316.85 215.91
  L 322.29 210.69
  C 342.84 220.69 355.14 202.98 361.99 187.03
  Q 363.16 184.30 369.99 176.41
  Q 373.31 174.79 378.09 174.68
  Z"
/>
<path fill="#ffffff" d="
  M 369.99 176.41
  Q 363.16 184.30 361.99 187.03
  C 355.14 202.98 342.84 220.69 322.29 210.69
  L 327.09 205.48
  Q 327.44 205.10 327.91 205.31
  C 335.93 208.86 341.57 203.79 346.52 198.27
  C 353.51 190.47 360.02 180.69 369.99 176.41
  Z"
/>
<path fill="#f7e640" d="
  M 455.27 187.49
  A 0.30 0.30 0.0 0 1 455.06 187.86
  L 431.57 194.50
  A 0.95 0.70 -15.8 0 1 430.47 194.09
  L 430.24 193.30
  A 0.95 0.70 -15.8 0 1 430.97 192.37
  L 454.45 185.72
  A 0.30 0.30 0.0 0 1 454.82 185.93
  L 455.27 187.49
  Z"
/>
<path fill="#f7e640" d="
  M 437.68 202.95
  L 433.81 202.22
  Q 433.37 202.13 433.23 201.70
  L 431.66 196.80
  A 0.53 0.53 0.0 0 1 432.06 196.11
  Q 442.78 193.91 453.11 190.27
  A 0.44 0.44 0.0 0 1 453.64 190.88
  L 448.82 200.44
  A 1.02 0.99 -82.0 0 1 448.14 200.97
  L 444.58 201.80
  A 0.41 0.41 0.0 0 0 444.74 202.60
  Q 449.32 201.82 452.87 204.70
  A 0.27 0.27 0.0 0 1 452.62 205.16
  Q 447.36 203.38 442.42 205.96
  A 1.13 1.09 -47.3 0 1 441.51 206.01
  Q 434.70 203.40 431.77 209.78
  Q 431.51 210.36 431.95 210.81
  A 0.33 0.33 0.0 0 0 432.49 210.72
  Q 434.49 206.38 439.15 207.52
  A 2.28 2.28 0.0 0 1 440.53 210.96
  Q 437.56 215.64 432.02 216.21
  C 427.96 216.62 426.10 213.03 427.43 209.61
  C 429.33 204.70 433.08 204.62 437.67 203.83
  A 0.45 0.45 0.0 0 0 437.68 202.95
  Z"
/>
<path fill="#f7e640" d="
  M 298.44 219.80
  C 310.40 211.88 320.09 203.05 329.35 192.13
  A 0.64 0.63 38.1 0 1 330.21 192.03
  L 331.77 193.15
  Q 332.41 193.61 331.93 194.24
  Q 318.52 211.68 299.66 223.02
  Q 299.26 223.26 298.91 222.95
  Q 297.86 222.00 298.00 220.54
  Q 298.04 220.07 298.44 219.80
  Z"
/>
<path fill="#c1c2c1" d="
  M 406.44 198.68
  Q 405.40 210.42 408.10 220.95
  Q 408.23 221.45 407.73 221.61
  Q 403.35 223.01 399.07 226.25
  Q 399.31 211.28 406.44 198.68
  Z"
/>
<path fill="#f7e640" d="
  M 446.96 216.54
  C 448.92 213.23 449.33 210.22 446.46 207.28
  Q 445.99 206.81 446.61 206.57
  C 450.57 205.10 453.61 214.65 447.23 216.88
  Q 446.63 217.09 446.96 216.54
  Z"
/>
<path fill="#f7e640" d="
  M 453.36 211.41
  A 0.45 0.44 -32.9 0 1 452.51 211.23
  Q 452.51 208.90 451.15 207.07
  Q 450.64 206.39 451.48 206.51
  C 454.66 206.93 454.43 209.06 453.36 211.41
  Z"
/>
<path fill="#f7e640" d="
  M 435.74 217.94
  C 439.40 216.80 444.90 212.85 443.47 208.30
  A 0.74 0.74 0.0 0 1 444.73 207.60
  C 449.97 213.65 442.56 221.16 435.73 218.70
  A 0.40 0.40 0.0 0 1 435.74 217.94
  Z"
/>
<path fill="#c1c2c1" d="
  M 316.85 215.91
  L 324.13 219.80
  C 333.57 230.31 351.76 226.32 362.82 220.08
  Q 363.22 219.86 363.67 219.91
  L 365.28 220.10
  C 350.70 232.29 324.44 238.69 310.06 222.13
  Q 309.70 221.71 310.13 221.37
  L 316.85 215.91
  Z"
/>
<path fill="#c1c2c1" d="
  M 439.23 259.31
  C 434.79 292.53 400.67 302.04 372.30 295.60
  Q 371.78 295.48 371.97 294.99
  L 374.70 287.99
  C 395.69 290.88 421.74 286.88 434.12 267.63
  Q 436.70 263.62 439.23 259.31
  Z"
/>
<path fill="#ffffff" d="
  M 420.43 296.99
  Q 420.21 297.05 419.98 297.03
  Q 419.44 296.97 419.88 296.66
  C 421.24 295.70 423.50 295.31 424.94 294.31
  Q 431.13 289.99 436.22 284.34
  A 0.38 0.37 62.6 0 1 436.87 284.55
  L 437.81 293.16
  Q 437.86 293.64 437.40 293.79
  Q 429.46 296.17 421.23 296.78
  Q 421.19 296.79 420.43 296.99
  Z"
/>
<path fill="#f7e640" d="
  M 412.42 301.28
  C 413.86 301.00 415.81 301.34 417.05 301.26
  Q 426.01 300.69 434.72 298.64
  Q 436.18 298.30 437.21 298.56
  A 0.63 0.63 0.0 0 1 437.23 299.77
  Q 425.05 303.30 412.44 301.85
  Q 410.60 301.63 412.42 301.28
  Z"
/>
<path fill="#fffdba" d="
  M 388.28 326.68
  L 397.99 332.00
  C 401.03 334.07 405.07 336.62 406.00 340.46
  A 0.94 0.94 0.0 0 1 405.78 341.32
  Q 403.88 343.41 401.77 343.83
  Q 387.56 346.66 373.70 350.81
  C 370.05 351.91 368.60 350.40 369.29 346.70
  C 369.71 346.16 369.88 345.46 369.58 344.77
  Q 366.59 337.92 364.24 330.83
  C 361.91 323.81 366.80 308.71 369.43 301.83
  A 0.54 0.53 16.0 0 1 370.04 301.50
  Q 386.09 305.09 402.33 302.37
  Q 402.98 302.26 403.41 302.75
  L 410.73 311.15
  A 0.65 0.64 -33.5 0 1 410.52 312.16
  L 384.49 324.22
  A 0.44 0.43 -45.5 0 0 384.49 325.01
  L 388.28 326.68
  Z"
/>
<path fill="#f7e640" d="
  M 416.45 312.64
  L 413.33 305.17
  A 0.45 0.45 0.0 0 1 413.78 304.55
  Q 425.30 305.34 436.53 302.56
  Q 437.13 302.41 437.03 303.02
  Q 435.99 309.33 433.24 315.10
  Q 433.01 315.58 433.21 316.07
  L 435.74 322.40
  Q 436.26 323.68 434.90 323.97
  Q 415.50 328.08 396.20 323.64
  A 0.25 0.25 0.0 0 1 396.14 323.17
  L 416.10 313.57
  Q 416.71 313.27 416.45 312.64
  Z"
/>
<path fill="#f7e640" d="
  M 359.14 313.69
  C 350.24 310.23 340.64 308.64 331.13 310.07
  A 0.93 0.92 2.5 0 1 330.09 308.94
  Q 330.21 308.38 331.09 308.28
  Q 345.85 306.58 360.15 310.47
  Q 360.64 310.60 360.50 311.09
  L 359.87 313.32
  Q 359.71 313.91 359.14 313.69
  Z"
/>
<path fill="#f7e640" d="
  M 336.62 331.47
  Q 332.07 323.01 330.81 313.45
  Q 330.69 312.53 331.62 312.42
  Q 345.33 310.84 358.10 315.97
  Q 359.13 316.38 358.85 317.47
  Q 357.54 322.55 357.28 328.01
  C 357.07 332.55 359.09 336.89 360.43 341.25
  Q 360.61 341.81 360.03 341.85
  Q 336.97 343.47 314.05 340.61
  Q 312.90 340.46 313.93 339.93
  L 333.03 330.06
  Q 333.45 329.84 333.83 330.12
  L 336.16 331.87
  A 0.31 0.31 0.0 0 0 336.62 331.47
  Z"
/>
<path fill="#c1c2c1" d="
  M 396.41 328.13
  Q 396.58 330.81 397.99 332.00
  L 388.28 326.68
  L 396.41 328.13
  Z"
/>
</svg>
